<svg width="241" height="40" viewBox="0 0 241 40" fill="none" xmlns="http://www.w3.org/2000/svg">
<g clip-path="url(#clip0_25_10)">
<rect x="1.5" y="1.5" width="37" height="37" rx="4.5" stroke="black" stroke-width="3"/>
<path d="M39.6404 31.3299L31.232 23.7102C31.0901 23.5816 31.0344 23.3836 31.0861 23.1992C31.6791 21.0842 32.0793 18.6895 31.4703 16.6023C30.8322 14.4155 29.5823 12.4566 27.868 10.9565C26.1536 9.45648 24.0462 8.4777 21.7941 8.13556C19.7816 7.82983 17.7285 8.04381 15.8285 8.75154C15.5002 8.87381 15.4209 9.29193 15.6677 9.54055L22.2264 16.1485C22.337 16.2599 22.3889 16.4169 22.3664 16.5723L21.6876 21.2644C21.6559 21.4837 21.4837 21.6559 21.2644 21.6876L16.5723 22.3664C16.4169 22.3889 16.2599 22.337 16.1485 22.2264L9.54055 15.6677C9.29193 15.4209 8.87381 15.5002 8.75154 15.8285C8.04381 17.7285 7.82983 19.7816 8.13556 21.7941C8.4777 24.0462 9.45648 26.1536 10.9565 27.868C12.4566 29.5823 14.4155 30.8322 16.6023 31.4703C18.6951 32.0809 20.9133 32.1069 23.0168 31.5482C23.1918 31.5017 23.3793 31.5481 23.5085 31.675L31.4703 39.5C31.7423 39.7673 32.1084 39.9171 32.4898 39.9171C32.8712 39.9171 33.2374 39.7673 33.5094 39.5L39.6404 33.369C39.9077 33.097 40.0575 32.7309 40.0575 32.3495C40.0575 31.9681 39.9077 31.6019 39.6404 31.3299Z" fill="black"/>
</g>
<path d="M50.701 32.5H55.326V14.629L68.72 32.5H73.345V7.081H68.72V24.952L55.326 7.081H50.701V32.5ZM87.0281 29.318C84.0681 29.318 81.9961 27.246 81.5151 24.249H96.3151C96.3151 17.293 92.8371 12.927 86.9171 12.927C81.4411 12.927 77.1491 17.108 77.1491 22.88C77.1491 28.763 81.6631 32.944 87.1761 32.944C89.9511 32.944 93.2811 31.76 94.9461 29.984L92.3561 27.32C91.1351 28.504 88.9891 29.318 87.0281 29.318ZM86.9911 16.553C89.8401 16.553 91.5421 18.551 91.9491 21.252H81.5521C82.1441 18.403 84.2531 16.553 86.9911 16.553ZM108.571 32.944C114.195 32.944 118.783 28.43 118.783 22.917C118.783 17.404 114.195 12.927 108.571 12.927C102.91 12.927 98.285 17.404 98.285 22.917C98.285 28.43 102.91 32.944 108.571 32.944ZM108.571 29.096C105.352 29.096 102.725 26.321 102.725 22.917C102.725 19.513 105.352 16.775 108.571 16.775C111.753 16.775 114.343 19.513 114.343 22.917C114.343 26.321 111.753 29.096 108.571 29.096ZM139.849 7.081V17.441H127.158V7.081H122.533V32.5H127.158V21.659H139.849V32.5H144.437V7.081H139.849ZM158.507 32.944C164.131 32.944 168.719 28.43 168.719 22.917C168.719 17.404 164.131 12.927 158.507 12.927C152.846 12.927 148.221 17.404 148.221 22.917C148.221 28.43 152.846 32.944 158.507 32.944ZM158.507 29.096C155.288 29.096 152.661 26.321 152.661 22.917C152.661 19.513 155.288 16.775 158.507 16.775C161.689 16.775 164.279 19.513 164.279 22.917C164.279 26.321 161.689 29.096 158.507 29.096ZM180.887 28.393C180.48 28.8 179.74 29.096 178.963 29.096C177.927 29.096 177.076 28.171 177.076 26.876V17.108H181.405V13.371H177.076V8.117H172.71V13.371H169.935V17.108H172.71V27.431C172.71 30.65 174.93 32.944 178.075 32.944C179.555 32.944 181.109 32.352 182.182 31.427L180.887 28.393ZM196.567 12.927C193.755 12.927 191.424 14.222 189.944 16.368V6.637H185.43V32.5H189.944V29.503C191.424 31.649 193.755 32.944 196.567 32.944C201.636 32.944 205.373 28.8 205.373 22.917C205.373 17.071 201.636 12.927 196.567 12.927ZM195.346 29.096C192.201 29.096 189.944 26.506 189.944 22.917C189.944 19.328 192.201 16.775 195.346 16.775C198.602 16.775 200.896 19.328 200.896 22.917C200.896 26.506 198.602 29.096 195.346 29.096ZM216.403 12.927C213.998 12.927 211.482 13.593 208.781 14.925L210.335 18.07C211.963 17.256 213.702 16.627 215.515 16.627C218.993 16.627 220.177 18.773 220.177 20.993V21.474C218.438 20.845 216.588 20.475 214.849 20.475C210.52 20.475 207.079 23.065 207.079 26.839C207.079 30.539 210.113 32.944 214.183 32.944C216.403 32.944 218.771 31.982 220.177 30.243V32.5H224.58V20.993C224.58 16.146 221.472 12.927 216.403 12.927ZM215.182 29.651C213.036 29.651 211.408 28.504 211.408 26.691C211.408 24.878 213.258 23.62 215.515 23.62C217.18 23.62 218.771 23.879 220.177 24.323V26.506C219.696 28.541 217.365 29.651 215.182 29.651ZM232.938 16.997V13.371H228.424V32.5H232.938V22.843C232.938 19.217 235.676 16.775 239.783 16.775V12.927C236.675 12.927 234.159 14.518 232.938 16.997Z" fill="black"/>
<defs>
<clipPath id="clip0_25_10">
<rect width="40" height="40" rx="6" fill="white"/>
</clipPath>
</defs>
</svg>
