<svg width="40" height="40" viewBox="0 0 40 40" fill="none" xmlns="http://www.w3.org/2000/svg">
<g clip-path="url(#clip0_9_6)">
<rect x="1.5" y="1.5" width="37" height="37" rx="4.5" stroke="white" stroke-width="3"/>
<path d="M39.6404 31.3299L31.232 23.7102C31.0901 23.5816 31.0344 23.3836 31.0861 23.1992C31.6791 21.0842 32.0793 18.6895 31.4703 16.6023C30.8322 14.4155 29.5823 12.4566 27.868 10.9565C26.1536 9.45648 24.0462 8.4777 21.7941 8.13556C19.7816 7.82983 17.7285 8.04381 15.8285 8.75154C15.5002 8.87381 15.4209 9.29193 15.6677 9.54055L22.2264 16.1485C22.337 16.2599 22.3889 16.4169 22.3664 16.5723L21.6876 21.2644C21.6559 21.4837 21.4837 21.6559 21.2644 21.6876L16.5723 22.3664C16.4169 22.3889 16.2599 22.337 16.1485 22.2264L9.54055 15.6677C9.29193 15.4209 8.87381 15.5002 8.75154 15.8285C8.04381 17.7285 7.82983 19.7816 8.13556 21.7941C8.4777 24.0462 9.45648 26.1536 10.9565 27.868C12.4566 29.5823 14.4155 30.8322 16.6023 31.4703C18.6951 32.0809 20.9133 32.1069 23.0168 31.5482C23.1918 31.5017 23.3793 31.5481 23.5085 31.675L31.4703 39.5C31.7423 39.7673 32.1084 39.9171 32.4898 39.9171C32.8712 39.9171 33.2374 39.7673 33.5094 39.5L39.6404 33.369C39.9077 33.097 40.0575 32.7309 40.0575 32.3495C40.0575 31.9681 39.9077 31.6019 39.6404 31.3299Z" fill="white"/>
</g>
<defs>
<clipPath id="clip0_9_6">
<rect width="40" height="40" rx="6" fill="white"/>
</clipPath>
</defs>
</svg>
