<svg width="147" height="31" viewBox="0 0 147 31" fill="none" xmlns="http://www.w3.org/2000/svg">
<path d="M18.1521 21.7305C17.8498 21.1071 17.5004 20.3326 17.1037 19.407C16.7259 18.4625 16.3292 17.3857 15.9136 16.1767C15.498 14.9489 15.0824 13.5793 14.6668 12.0681C14.8557 11.8414 15.1202 11.6525 15.4602 11.5014C15.8003 11.3314 16.1686 11.2464 16.5653 11.2464C17.0564 11.2464 17.4626 11.3597 17.7837 11.5864C18.1049 11.8131 18.3504 12.2192 18.5204 12.8048C18.9927 14.2405 19.4744 15.6762 19.9655 17.1118C20.4756 18.5286 21.0045 19.9737 21.5523 21.4471H21.6657C22.0057 20.6159 22.3552 19.6525 22.7141 18.5569C23.0919 17.4424 23.4413 16.2901 23.7625 15.1C24.0836 13.891 24.3481 12.7387 24.5559 11.6431C24.7825 11.5298 25.0187 11.4353 25.2642 11.3597C25.5287 11.2842 25.8026 11.2464 26.086 11.2464C26.596 11.2464 27.021 11.3597 27.3611 11.5864C27.72 11.8131 27.8994 12.1815 27.8994 12.6915C27.8994 13.1449 27.8144 13.7494 27.6444 14.505C27.4933 15.2606 27.276 16.0917 26.9927 16.9985C26.7282 17.9052 26.4071 18.8497 26.0293 19.832C25.6704 20.7954 25.2831 21.7399 24.8675 22.6655C24.4709 23.5723 24.0647 24.394 23.6491 25.1307C22.6857 26.8497 21.7979 28.1437 20.9856 29.0126C20.1733 29.8816 19.3799 30.3161 18.6054 30.3161C18.001 30.3161 17.5098 30.1366 17.132 29.7777C16.7542 29.4377 16.5275 29.0032 16.452 28.4743C16.8487 28.1153 17.2737 27.6903 17.7271 27.1992C18.1993 26.708 18.6527 26.1791 19.0871 25.6124C19.5216 25.0457 19.89 24.5073 20.1922 23.9973C19.8711 23.9028 19.5405 23.7045 19.2005 23.4022C18.8794 23.1 18.5299 22.5427 18.1521 21.7305Z" fill="url(#paint0_radial_105_245)"/>
<path d="M6.71547 11.133C7.92444 11.133 9.02007 11.3975 10.0024 11.9264C10.9847 12.4365 11.7591 13.2204 12.3259 14.2783C12.8926 15.3172 13.1759 16.6301 13.1759 18.2169C13.1759 19.7848 12.8737 21.1071 12.2692 22.1838C11.6836 23.2417 10.8524 24.0445 9.77568 24.5923C8.71783 25.1212 7.47107 25.3857 6.03542 25.3857C4.93979 25.3857 3.98583 25.244 3.17355 24.9607C2.36127 24.6962 1.69067 24.394 1.16175 24.0539C0.765053 23.7895 0.472255 23.5061 0.283353 23.2039C0.0944509 22.8827 0 22.5049 0 22.0705V12.9465H3.57025V21.8721C3.81582 22.0232 4.1464 22.1649 4.56198 22.2971C4.97757 22.4294 5.45927 22.4955 6.00708 22.4955C7.06493 22.4955 7.91499 22.146 8.55726 21.4471C9.19953 20.7293 9.52066 19.6525 9.52066 18.2169C9.52066 16.7434 9.19953 15.6667 8.55726 14.9866C7.93388 14.3066 7.11216 13.9666 6.09209 13.9666C5.43093 13.9666 4.84534 14.0988 4.3353 14.3633C3.82526 14.6088 3.40024 14.8827 3.06021 15.185L2.86186 12.2948C3.27745 12.0114 3.80637 11.747 4.44864 11.5014C5.1098 11.2558 5.86541 11.133 6.71547 11.133ZM3.59858 13.7682H0V6.54272C0.151122 6.48605 0.377804 6.43883 0.680047 6.40105C0.98229 6.34438 1.30342 6.31604 1.64345 6.31604C2.32349 6.31604 2.81464 6.43883 3.11688 6.6844C3.43802 6.91108 3.59858 7.34556 3.59858 7.98782V13.7682Z" fill="url(#paint1_radial_105_245)"/>
<path d="M123.675 22.156C123.417 20.5286 123.557 18.9327 124.676 18.348C125.794 17.7633 141.44 16.456 141.44 16.456C141.352 15.3414 140.926 14.3734 140.164 13.552C139.401 12.7307 138.286 12.32 136.82 12.32C135.324 12.32 134.077 12.848 133.08 13.904C132.082 14.9307 131.569 16.412 131.54 18.348L131.672 20.636C131.936 22.5134 132.654 23.892 133.828 24.772C135.03 25.652 136.541 26.092 138.36 26.092C139.592 26.092 140.736 25.916 141.792 25.564C142.848 25.1827 143.684 24.772 144.3 24.332C144.71 24.596 145.033 24.9334 145.268 25.344C145.532 25.7254 145.664 26.1507 145.664 26.62C145.664 27.3827 145.326 28.0427 144.652 28.6C143.977 29.128 143.068 29.5387 141.924 29.832C140.78 30.1254 139.474 30.272 138.008 30.272C135.749 30.272 133.74 29.8614 131.98 29.04C130.249 28.1894 128.885 26.928 127.888 25.256C126.92 23.584 126.436 21.5014 126.436 19.008C126.436 17.2187 126.714 15.6494 127.272 14.3C127.829 12.9507 128.577 11.836 129.516 10.956C130.484 10.0467 131.598 9.37203 132.86 8.93203C134.121 8.46269 135.441 8.22803 136.82 8.22803C138.756 8.22803 140.442 8.62403 141.88 9.41603C143.346 10.1787 144.49 11.2494 145.312 12.628C146.162 14.0067 146.588 15.5907 146.588 17.38C146.588 18.2014 146.368 18.8174 145.928 19.228C145.517 19.6094 144.93 19.844 144.168 19.932L123.675 22.156Z" fill="url(#paint2_radial_105_245)"/>
<path d="M106.675 14.432C106.349 12.5776 106.994 10.7069 108.176 10.156C109.357 9.60509 123.721 10.208 123.721 10.208C123.838 10.4133 123.956 10.7067 124.073 11.088C124.22 11.44 124.293 11.8507 124.293 12.32C124.293 13.0533 124.117 13.596 123.765 13.948C123.442 14.2707 122.973 14.432 122.357 14.432H106.675ZM115.713 8.096V13.772H110.521V7.876C110.521 6.028 110.888 4.532 111.621 3.388C112.384 2.21467 113.425 1.364 114.745 0.835999C116.094 0.278666 117.62 0 119.321 0C121.228 0 122.68 0.249334 123.677 0.748001C124.674 1.24667 125.173 1.99467 125.173 2.992C125.173 3.432 125.07 3.84267 124.865 4.224C124.689 4.576 124.469 4.86933 124.205 5.104C123.648 4.86933 123.017 4.67867 122.313 4.532C121.638 4.38533 120.92 4.312 120.157 4.312C118.602 4.312 117.473 4.60533 116.769 5.192C116.065 5.77867 115.713 6.74667 115.713 8.096ZM110.521 12.232H115.933V29.568C115.698 29.656 115.361 29.7293 114.921 29.788C114.481 29.876 113.997 29.92 113.469 29.92C112.472 29.92 111.724 29.744 111.225 29.392C110.756 29.0107 110.521 28.3507 110.521 27.412V12.232Z" fill="url(#paint3_radial_105_245)"/>
<path fill-rule="evenodd" clip-rule="evenodd" d="M98.0477 25.916C97.3437 26.092 96.5517 26.18 95.6717 26.18C94.2637 26.18 93.2224 25.9307 92.5477 25.432C91.873 24.9334 91.5357 24.2587 91.5357 23.408C91.5357 22.5867 91.8437 21.9707 92.4597 21.56C93.105 21.12 94.029 20.856 95.2317 20.768L99.5665 20.7237L104.868 20.6694V16.901L99.5495 17.0228L93.5597 17.16C91.1837 17.3947 89.365 18.04 88.1037 19.096C86.8717 20.1227 86.2557 21.6187 86.2557 23.584C86.2557 25.8134 87.0917 27.5 88.7637 28.644C90.4357 29.7587 92.7384 30.316 95.6717 30.316C97.2557 30.316 98.6784 30.1547 99.9397 29.832C101.201 29.5387 102.242 29.1574 103.064 28.688C103.592 28.3654 104.017 27.9987 104.34 27.588C104.692 27.1774 104.868 26.62 104.868 25.916V20.6694V16.901V15.796C104.868 13.1854 104.017 11.2787 102.316 10.076C100.614 8.84403 98.3264 8.22803 95.4517 8.22803C94.3664 8.22803 93.2664 8.31603 92.1517 8.49203C91.0664 8.66803 90.113 8.94669 89.2917 9.32803C88.1184 9.82669 87.5317 10.604 87.5317 11.66C87.5317 12.1 87.649 12.5254 87.8837 12.936C88.1184 13.3467 88.3824 13.6694 88.6757 13.904C89.5264 13.4934 90.4944 13.1414 91.5797 12.848C92.665 12.5547 93.7797 12.408 94.9237 12.408C96.3904 12.408 97.5197 12.672 98.3117 13.2C99.133 13.728 99.5437 14.5787 99.5437 15.752L99.5495 17.0228L99.5665 20.7237L99.5877 25.344C99.265 25.5494 98.7517 25.74 98.0477 25.916Z" fill="url(#paint4_radial_105_245)"/>
<path d="M99.5665 20.7237L104.868 20.6694V16.901L99.5495 17.0228L99.5665 20.7237Z" fill="url(#paint5_radial_105_245)"/>
<path d="M81.118 8.40399C81.8807 8.40399 82.5113 8.57999 83.01 8.93199C83.5087 9.28399 83.758 9.84132 83.758 10.604C83.758 11.0733 83.5967 11.8653 83.274 12.98C82.9807 14.0653 82.5847 15.3413 82.086 16.808C81.5873 18.2747 81.03 19.7853 80.414 21.34C79.8273 22.8947 79.226 24.376 78.61 25.784C77.994 27.1627 77.4367 28.3213 76.938 29.26C76.674 29.4653 76.2487 29.6413 75.662 29.788C75.1047 29.9347 74.474 30.008 73.77 30.008C72.9487 30.008 72.2447 29.8907 71.658 29.656C71.0713 29.4507 70.6607 29.1133 70.426 28.644C70.1033 28.028 69.6927 27.1627 69.194 26.048C68.7247 24.9333 68.2113 23.6573 67.654 22.22C67.0967 20.7827 66.5393 19.3013 65.982 17.776C65.4247 16.2507 64.9113 14.784 64.442 13.376C64.002 11.968 63.6353 10.7213 63.342 9.63599C63.6647 9.28399 64.0753 8.99066 64.574 8.75599C65.102 8.52132 65.6447 8.40399 66.202 8.40399C66.9647 8.40399 67.5807 8.57999 68.05 8.93199C68.5487 9.25466 68.9153 9.85599 69.15 10.736L71.394 18.084C71.6287 18.8467 71.8927 19.6827 72.186 20.592C72.5087 21.472 72.802 22.3227 73.066 23.144C73.33 23.936 73.55 24.6107 73.726 25.168H73.902C74.782 22.5867 75.6327 19.9027 76.454 17.116C77.3047 14.3293 78.038 11.616 78.654 8.97599C79.358 8.59466 80.1793 8.40399 81.118 8.40399Z" fill="url(#paint6_radial_105_245)"/>
<path d="M50.2716 7.48001H50.0516C49.6703 8.53601 49.2449 9.73868 48.7756 11.088C48.3356 12.4373 47.8663 13.8453 47.3676 15.312C46.8689 16.7493 46.3996 18.1427 45.9596 19.492L45.3436 22.22C45.1676 22.7773 44.9769 23.3933 44.7716 24.068C44.5956 24.7427 44.3903 25.432 44.1556 26.136C43.9503 26.8107 43.7449 27.456 43.5396 28.072C43.3636 28.688 43.2023 29.2307 43.0556 29.7C42.7623 29.788 42.4396 29.8613 42.0876 29.92C41.7649 30.008 41.3689 30.052 40.8996 30.052C39.9609 30.052 39.2129 29.876 38.6556 29.524C38.1276 29.1427 37.8636 28.5853 37.8636 27.852C37.8636 27.5293 37.9076 27.192 37.9956 26.84C38.1129 26.488 38.2303 26.092 38.3476 25.652C38.6409 24.684 39.0369 23.4813 39.5356 22.044C40.0343 20.5773 40.5769 18.9933 41.1636 17.292C41.7503 15.5907 42.3516 13.8747 42.9676 12.144C43.6129 10.4133 44.2143 8.80001 44.7716 7.30401C45.3289 5.77868 45.8129 4.50268 46.2236 3.47601C46.5756 3.27068 47.1183 3.08001 47.8516 2.90401C48.5849 2.72801 49.3329 2.64001 50.0956 2.64001C51.0929 2.64001 52.0023 2.78668 52.8236 3.08001C53.6743 3.37335 54.2023 3.84268 54.4076 4.48801C55.0236 6.10135 55.6836 7.94935 56.3876 10.032C57.0916 12.1147 57.8103 14.2853 58.5436 16.544C59.2769 18.8027 59.9809 21.0027 60.6556 23.144C61.3303 25.2853 61.9316 27.2214 62.4596 28.952C62.1663 29.2747 61.7556 29.5387 61.2276 29.744C60.7289 29.9493 60.1423 30.052 59.4676 30.052C58.4996 30.052 57.7956 29.876 57.3556 29.524C56.9449 29.1427 56.6223 28.5707 56.3876 27.808C54.8445 23.5526 54.0071 19.1262 52.6036 14.828C52.1636 13.3613 51.7383 11.9973 51.3276 10.736C50.9169 9.47468 50.5649 8.38935 50.2716 7.48001ZM35.9276 21.648C35.6755 20.156 37.1677 17.636 38.3476 17.5C39.5275 17.364 53.7315 18.6612 53.7315 18.6612L54.8994 23L35.9276 21.648Z" fill="url(#paint7_radial_105_245)"/>
<defs>
<radialGradient id="paint0_radial_105_245" cx="0" cy="0" r="1" gradientUnits="userSpaceOnUse" gradientTransform="translate(14.6668 11.2464) rotate(55.2429) scale(23.2111 71.6087)">
<stop offset="0.0001" stop-color="#B5A0FF"/>
<stop offset="1" stop-color="#9F84FF"/>
</radialGradient>
<radialGradient id="paint1_radial_105_245" cx="0" cy="0" r="1" gradientUnits="userSpaceOnUse" gradientTransform="translate(0 6.31604) rotate(55.358) scale(23.1788 71.4012)">
<stop offset="0.0001" stop-color="#B5A0FF"/>
<stop offset="1" stop-color="#9F84FF"/>
</radialGradient>
<radialGradient id="paint2_radial_105_245" cx="0" cy="0" r="1" gradientUnits="userSpaceOnUse" gradientTransform="translate(123.565 8.22803) rotate(43.7556) scale(31.8747 104.877)">
<stop offset="0.0001" stop-color="#B5A0FF"/>
<stop offset="1" stop-color="#9F84FF"/>
</radialGradient>
<radialGradient id="paint3_radial_105_245" cx="0" cy="0" r="1" gradientUnits="userSpaceOnUse" gradientTransform="translate(106.591) rotate(58.1573) scale(35.2207 103.975)">
<stop offset="0.0001" stop-color="#B5A0FF"/>
<stop offset="1" stop-color="#9F84FF"/>
</radialGradient>
<radialGradient id="paint4_radial_105_245" cx="0" cy="0" r="1" gradientUnits="userSpaceOnUse" gradientTransform="translate(86.2557 8.22803) rotate(49.8815) scale(28.884 93.7486)">
<stop offset="0.0001" stop-color="#B5A0FF"/>
<stop offset="1" stop-color="#9F84FF"/>
</radialGradient>
<radialGradient id="paint5_radial_105_245" cx="0" cy="0" r="1" gradientUnits="userSpaceOnUse" gradientTransform="translate(86.2557 8.22803) rotate(49.8815) scale(28.884 93.7486)">
<stop offset="0.0001" stop-color="#B5A0FF"/>
<stop offset="1" stop-color="#9F84FF"/>
</radialGradient>
<radialGradient id="paint6_radial_105_245" cx="0" cy="0" r="1" gradientUnits="userSpaceOnUse" gradientTransform="translate(63.342 8.40399) rotate(46.6194) scale(29.7245 97.738)">
<stop offset="0.0001" stop-color="#B5A0FF"/>
<stop offset="1" stop-color="#9F84FF"/>
</radialGradient>
<radialGradient id="paint7_radial_105_245" cx="0" cy="0" r="1" gradientUnits="userSpaceOnUse" gradientTransform="translate(35.8994 2.64001) rotate(45.9042) scale(38.1688 125.642)">
<stop offset="0.0001" stop-color="#B5A0FF"/>
<stop offset="1" stop-color="#9F84FF"/>
</radialGradient>
</defs>
</svg>
